<?xml version="1.0" encoding="UTF-8"?>

<svg enable-background="new 0 0 243.5 243.5" version="1.1" width="35" height="35" viewBox="0 0 243.5 243.5" xml:space="preserve" xmlns="http://www.w3.org/2000/svg">

<g fill="#ffffff">

	<path d="m113.4 157.78c0.399 3.858 3.655 6.729 7.451 6.729 0.258 0 0.518-0.013 0.78-0.04 4.12-0.426 7.115-4.111 6.689-8.232l-3.458-33.468c-0.426-4.121-4.11-7.112-8.231-6.689-4.12 0.426-7.115 4.111-6.69 8.231l3.459 33.469z"/>
	<path d="m160.34 164.46c0.262 0.027 0.522 0.04 0.78 0.04 3.795 0 7.052-2.872 7.451-6.729l3.458-33.468c0.426-4.121-2.569-7.806-6.689-8.231-4.121-0.422-7.806 2.57-8.232 6.689l-3.458 33.468c-0.425 4.121 2.57 7.806 6.69 8.231z"/>
	<path d="m102.27 197.06c-12.801 0-23.215 10.414-23.215 23.215 0 12.804 10.414 23.221 23.215 23.221s23.216-10.417 23.216-23.221c-1e-3 -12.8-10.415-23.215-23.216-23.215zm0 31.436c-4.53 0-8.215-3.688-8.215-8.221 0-4.53 3.685-8.215 8.215-8.215s8.216 3.685 8.216 8.215c-1e-3 4.533-3.686 8.221-8.216 8.221z"/>
	<path d="m179.71 197.06c-12.801 0-23.216 10.414-23.216 23.215 0 12.804 10.415 23.221 23.216 23.221 12.802 0 23.218-10.417 23.218-23.221 0-12.8-10.416-23.215-23.218-23.215zm0 31.436c-4.53 0-8.216-3.688-8.216-8.221 0-4.53 3.686-8.215 8.216-8.215 4.531 0 8.218 3.685 8.218 8.215 0 4.533-3.687 8.221-8.218 8.221z"/>
	<path d="m224.57 91.057c-1.42-1.837-3.611-2.913-5.933-2.913h-149.5l-6.277-24.141c-0.86-3.305-3.844-5.612-7.259-5.612h-30.74c-4.142 0-7.5 3.358-7.5 7.5s3.358 7.5 7.5 7.5h24.941l6.221 23.922c0.034 0.15 0.073 0.299 0.116 0.446l23.15 89.022c0.86 3.305 3.844 5.612 7.259 5.612h108.87c3.415 0 6.399-2.307 7.259-5.612l23.211-89.25c0.582-2.246 0.093-4.637-1.327-6.474zm-34.943 86.338h-97.276l-19.309-74.25h135.89l-19.309 74.25z"/>
	<path d="m135.67 74.826c1.464 1.464 3.384 2.197 5.303 2.197 1.92 0 3.839-0.732 5.303-2.197l24.28-24.28c2.929-2.929 2.929-7.678 0-10.606s-7.678-2.928-10.606 0l-11.468 11.468 2e-3 -43.907c0-4.142-3.357-7.501-7.499-7.501h-1e-3c-4.142 0-7.5 3.358-7.5 7.499l-2e-3 43.925-11.468-11.468c-2.929-2.929-7.678-2.929-10.606 0-2.929 2.929-2.929 7.678 0 10.606l24.262 24.264z"/>

</g>

</svg>
