<svg width="24" height="24" viewBox="0 0 24 24" fill="none" xmlns="http://www.w3.org/2000/svg">
<g id="favorite_FILL1_wght400_GRAD0_opsz24 1">
<path id="Vector" d="M12 21.3234C11.7667 21.3234 11.5292 21.2818 11.2875 21.1984C11.0458 21.1151 10.8333 20.9818 10.65 20.7984L8.925 19.2234C7.15833 17.6068 5.5625 16.0026 4.1375 14.4109C2.7125 12.8193 2 11.0651 2 9.14844C2 7.58177 2.525 6.27344 3.575 5.22344C4.625 4.17344 5.93333 3.64844 7.5 3.64844C8.38333 3.64844 9.21667 3.83594 10 4.21094C10.7833 4.58594 11.45 5.09844 12 5.74844C12.55 5.09844 13.2167 4.58594 14 4.21094C14.7833 3.83594 15.6167 3.64844 16.5 3.64844C18.0667 3.64844 19.375 4.17344 20.425 5.22344C21.475 6.27344 22 7.58177 22 9.14844C22 11.0651 21.2917 12.8234 19.875 14.4234C18.4583 16.0234 16.85 17.6318 15.05 19.2484L13.35 20.7984C13.1667 20.9818 12.9542 21.1151 12.7125 21.1984C12.4708 21.2818 12.2333 21.3234 12 21.3234Z" fill="#04121B" fill-opacity="0.48"/>
</g>
</svg>
