<svg width="70" height="70" viewBox="0 0 250 250" fill="none" xmlns="http://www.w3.org/2000/svg">
<g clip-path="url(#clip0_518_3373)">
<g clip-path="url(#clip1_518_3373)">
<path d="M195.986 116.892C196.049 129.448 194.911 138.913 192.002 148.063C187.639 161.881 179.671 173.302 168.604 182.515C155.577 193.368 140.716 200.498 124.021 203.653C116.179 205.104 108.274 205.357 100.306 204.536C89.4292 203.464 78.6786 201.444 68.2442 198.037C63.5646 196.46 58.8849 194.756 54.3317 192.863C48.3241 190.465 42.8855 187.121 37.7632 183.209C33.3365 179.802 29.0363 176.331 25.1155 172.356C20.1196 167.308 15.9459 161.692 12.8472 155.382C8.42049 146.422 4.75265 137.21 2.34958 127.492C1.33777 123.391 0.768619 119.163 0.515664 114.936C0.199471 110.077 -0.0534834 105.155 0.00975526 100.297C0.136232 89.1282 3.48788 78.7799 8.86316 68.9996C15.2503 57.3262 24.3566 48.1138 35.4234 40.8574C38.2059 39.0275 40.8619 37.0714 43.4547 34.9261C51.1698 28.4269 59.2643 22.4955 67.8648 17.1952C80.8287 9.30784 94.7412 3.94442 109.729 1.29426C117.128 0.0322791 124.59 -0.472513 132.052 0.537072C144.257 2.24075 153.869 8.04586 160.573 18.5203C163.355 22.9372 165.442 27.6697 167.276 32.5914C168.224 35.1785 169.11 37.7024 169.995 40.2895C172.588 47.7352 175.623 54.9916 179.228 61.9956C181.631 66.6649 183.908 71.3973 186.247 76.0667C193.014 89.8854 196.239 104.524 195.986 116.892Z" fill="#55BBDA"/>
<mask id="mask0_518_3373" style="mask-type:alpha" maskUnits="userSpaceOnUse" x="0" y="0" width="196" height="205">
<path d="M195.986 116.892C196.049 129.448 194.911 138.913 192.002 148.063C187.639 161.881 179.671 173.302 168.604 182.515C155.577 193.368 140.716 200.498 124.021 203.653C116.179 205.104 108.274 205.357 100.306 204.536C89.4292 203.464 78.6786 201.444 68.2442 198.037C63.5646 196.46 58.8849 194.756 54.3317 192.863C48.3241 190.465 42.8855 187.121 37.7632 183.209C33.3365 179.802 29.0363 176.331 25.1155 172.356C20.1196 167.308 15.9459 161.692 12.8472 155.382C8.42049 146.422 4.75265 137.21 2.34958 127.492C1.33777 123.391 0.768619 119.163 0.515664 114.936C0.199471 110.077 -0.0534834 105.155 0.00975526 100.297C0.136232 89.1282 3.48788 78.7799 8.86316 68.9996C15.2503 57.3262 24.3566 48.1138 35.4234 40.8574C38.2059 39.0275 40.8619 37.0714 43.4547 34.9261C51.1698 28.4269 59.2643 22.4955 67.8648 17.1952C80.8287 9.30784 94.7412 3.94442 109.729 1.29426C117.128 0.0322791 124.59 -0.472513 132.052 0.537072C144.257 2.24075 153.869 8.04586 160.573 18.5203C163.355 22.9372 165.442 27.6697 167.276 32.5914C168.224 35.1785 169.11 37.7024 169.995 40.2895C172.588 47.7352 175.623 54.9916 179.228 61.9956C181.631 66.6649 183.908 71.3973 186.247 76.0667C193.014 89.8854 196.239 104.524 195.986 116.892Z" fill="black"/>
</mask>
<g mask="url(#mask0_518_3373)">
<path d="M92.1732 -94.6172C91.2879 -94.3648 90.3393 -94.1124 89.454 -93.86C83.9522 -92.5349 79.2725 -89.7586 75.0356 -86.1619C69.2176 -81.1771 64.2218 -75.4351 59.4789 -69.4407C50.8784 -58.3983 43.2898 -46.5988 36.2071 -34.5469C21.2195 -8.92866 8.06587 17.573 -2.93765 45.1472C-7.99674 57.7671 -11.7278 70.8286 -14.0044 84.2687C-15.9648 95.8158 -16.7869 107.426 -16.1545 119.099C-15.4589 133.17 -12.8661 146.863 -7.36435 159.861C-3.5068 169.074 1.61553 177.466 8.50854 184.785C9.14092 185.416 9.77331 186.047 10.4689 186.678C10.5322 186.742 10.6587 186.742 10.9116 186.742C10.7219 185.29 10.5954 183.965 10.4057 182.577C9.71007 176.583 9.77331 170.588 10.3425 164.594C11.0381 157.148 12.619 149.829 14.8324 142.698C15.0221 142.067 15.0221 141.31 14.8324 140.616C12.5558 130.331 11.7337 119.983 12.2396 109.508C13.2514 87.9915 19.1326 67.7367 28.9978 48.7439C43.353 21.1696 63.3364 -1.48296 89.2642 -18.8352C98.8133 -25.2082 108.931 -30.6347 119.872 -34.3576C123.223 -35.4934 126.702 -36.2505 130.116 -37.0708C131.191 -37.3232 132.33 -37.3232 133.405 -37.3232C133.847 -37.3232 134.353 -37.1339 134.796 -37.0077C134.796 -36.8815 134.796 -36.8184 134.796 -36.6922C134.543 -36.566 134.227 -36.3136 133.974 -36.3136C124.045 -35.3041 115.002 -31.5812 106.212 -27.1012C91.0982 -19.4662 77.7548 -9.37035 65.7395 2.49227C48.7283 19.2766 35.1952 38.5219 25.7727 60.4803C20.3342 73.1001 16.7928 86.1617 15.0854 99.791C13.6309 111.843 13.7573 123.832 15.9075 135.821C16.0339 136.389 16.1604 136.893 16.2869 137.777C16.5398 137.209 16.7296 136.893 16.856 136.578C21.5989 124.147 28.1125 112.789 36.3968 102.378C36.9659 101.621 37.0924 100.927 37.0924 100.043C36.9659 95.6896 36.5865 91.3358 36.9027 87.045C38.4204 64.5818 46.5782 45.021 63.0835 29.3094C71.3677 21.4851 81.0432 16.0586 92.1732 13.5346C104.252 10.8214 115.888 11.894 126.891 17.8885C128.535 18.7718 130.116 19.8445 131.761 20.8541C133.595 19.9707 135.492 19.0873 137.452 18.2039C138.084 17.9516 138.021 17.3837 138.021 16.942C138.084 14.7966 138.148 12.5881 138.148 10.4428C138.021 1.73509 138.084 -7.03568 137.705 -15.7434C137.326 -26.4071 136.377 -37.0708 134.227 -47.6084C132.962 -53.9183 131.002 -59.9758 128.219 -65.844C127.966 -66.3488 127.777 -66.8536 127.777 -67.4215C127.966 -67.106 128.219 -66.7905 128.346 -66.475C131.887 -59.5972 134.227 -52.3408 135.681 -44.7689C137.326 -36.3136 138.211 -27.7953 138.78 -19.2769C139.602 -7.79287 139.665 3.69116 139.539 15.2383C139.539 15.7431 139.539 16.2479 139.539 16.7527C139.539 16.8158 139.602 16.942 139.729 17.1313C140.298 16.942 140.93 16.7527 141.563 16.5003C148.519 13.9763 155.665 12.525 163.127 12.7774C181.213 13.2822 195.126 21.3589 204.928 36.5027C209.987 44.3901 212.706 53.0977 213.655 62.3733C215.236 77.454 212.074 91.7144 205.623 105.281C203.726 109.256 201.386 113.042 199.11 116.891C198.604 117.837 198.477 118.531 198.794 119.541C201.576 127.996 202.272 136.704 201.323 145.538C199.299 164.909 191.331 181.757 179.063 196.711C171.348 206.05 162.305 213.811 151.554 219.49C144.535 223.213 137.073 225.737 129.105 226.494C119.745 227.377 110.765 225.863 102.355 221.446C101.28 220.878 100.521 220.941 99.5089 221.572C91.0982 227.062 82.055 230.848 72.1266 232.488C59.4156 234.571 47.2106 233.119 35.9541 226.494C26.2786 220.815 19.6385 212.486 15.2118 202.264C13.7573 198.857 12.619 195.386 11.7969 191.789C11.6072 191.032 11.4175 190.401 10.7851 189.833C1.742 181.631 -4.70833 171.661 -9.38799 160.492C-13.2455 151.217 -15.6486 141.563 -17.0399 131.593C-18.6841 119.983 -18.7473 108.373 -17.6722 96.6992C-15.9016 77.8957 -11.0954 59.9124 -3.94947 42.4971C8.76149 11.5154 23.749 -18.3304 41.6456 -46.6619C48.0959 -56.8839 55.0522 -66.7274 63.0202 -75.8768C66.4983 -79.852 70.2294 -83.5118 74.2767 -86.9191C79.5887 -91.0205 85.4067 -93.86 92.1732 -94.6172ZM197.339 115.503C197.466 115.503 197.655 115.566 197.782 115.566C198.098 115.124 198.414 114.682 198.667 114.241C200.564 110.77 202.588 107.426 204.295 103.829C210.619 90.2631 213.655 76.0658 211.757 61.0482C210.493 51.2048 207.204 42.1185 201.197 34.168C191.964 21.9268 179.695 15.3645 164.328 14.6704C156.171 14.2918 148.329 15.9324 140.74 18.8349C139.918 19.1504 139.665 19.5921 139.665 20.4124C139.665 22.5578 139.602 24.64 139.476 26.7854C139.412 27.6057 139.729 28.2367 140.235 28.8046C143.776 32.906 146.495 37.4492 148.645 42.434C150.795 47.3557 152.25 52.4667 153.135 57.7671C153.262 58.5874 153.578 59.0921 154.463 59.3445C155.475 59.5969 156.487 60.0386 157.435 60.4172C167.237 64.2032 175.901 69.7559 182.857 77.7064C191.648 87.7391 195.948 99.6017 196.77 112.789C196.896 113.673 197.213 114.619 197.339 115.503ZM129.8 22.1161C129.674 21.9268 129.61 21.8637 129.547 21.8006C129.421 21.6744 129.231 21.5482 129.041 21.422C122.338 17.0051 115.002 14.6073 106.971 14.1025C96.6632 13.5346 86.9877 15.9955 77.9445 20.8541C66.3719 27.1009 57.5185 36.1241 50.8784 47.3557C41.7088 62.815 37.8513 79.5993 38.7998 97.5195C38.7998 98.0243 38.9263 98.466 38.9896 98.9707C39.1793 98.9077 39.3057 98.9077 39.369 98.8446C39.6852 98.5291 40.0014 98.1505 40.2543 97.835C53.7241 82.4388 69.7235 70.45 88.8216 62.815C89.5804 62.4995 90.0231 61.9947 90.4658 61.3637C92.9321 57.7671 95.3352 54.0442 97.9912 50.5738C106.592 39.279 116.773 29.688 129.105 22.5578C129.358 22.3685 129.547 22.2423 129.8 22.1161ZM197.149 120.74C197.023 120.74 196.96 120.803 196.833 120.803C196.77 121.245 196.643 121.686 196.643 122.128C196.39 125.725 195.821 129.258 194.873 132.729C189.118 154.561 176.407 171.282 157.309 183.208C148.456 188.698 138.78 191.979 128.219 191.916C127.397 191.916 127.081 192.357 126.765 192.988C121.137 203.21 113.485 211.729 104.125 218.733C103.746 218.985 103.43 219.301 102.987 219.679C103.556 219.995 103.999 220.247 104.442 220.436C113.548 224.916 123.16 225.989 133.089 224.159C141.752 222.582 149.657 219.048 156.993 214.19C169.577 205.861 179.506 195.008 187.158 182.135C194.81 169.2 199.426 155.255 199.869 140.174C200.058 134.054 199.299 127.996 197.592 122.065C197.466 121.56 197.339 121.119 197.149 120.74ZM152.819 90.1369C152.693 90.6417 152.629 90.8941 152.566 91.1465C151.365 97.5826 149.657 103.956 147.507 110.139C143.839 120.929 139.033 131.214 133.342 141.058C132.899 141.815 132.646 142.446 132.899 143.329C134.543 148.819 135.365 154.435 135.302 160.177C135.302 160.555 135.365 160.934 135.428 161.313C135.618 161.313 135.745 161.376 135.808 161.376C136.251 161.25 136.693 161.186 137.136 160.997C159.775 154.246 178.115 141.31 192.659 122.822C194.873 119.983 194.81 119.983 194.873 116.386C194.873 115.377 194.81 114.43 194.304 113.484C186.715 98.9077 174.7 91.0834 158.258 90.1369C156.55 90.0107 154.716 90.1369 152.819 90.1369ZM107.098 112.663C107.54 112.158 107.92 111.717 108.362 111.275C114.307 104.713 121.137 99.3493 128.978 95.2479C129.99 94.7431 131.318 94.3645 131.887 93.4811C132.456 92.5977 132.393 91.2727 132.519 90.1369C133.658 80.2303 134.733 70.2607 135.808 60.3541C135.934 59.3445 135.934 58.2719 135.998 57.1361C135.618 57.073 135.365 57.0099 135.175 56.9468C133.025 56.8206 130.812 56.6313 128.662 56.6313C116.267 56.5051 104.378 58.7766 92.7424 62.9412C91.7306 63.3198 91.0349 63.8877 90.529 64.8342C81.6124 80.041 75.415 96.2575 71.7472 113.484C71.6839 113.799 71.6839 114.178 71.6207 114.682C83.2566 109.067 94.9557 107.742 107.098 112.663ZM88.1892 65.1497C88.126 65.0865 88.0627 65.0235 87.9995 64.9604C87.4303 65.2128 86.8612 65.4021 86.3553 65.6544C77.2489 69.6297 68.7117 74.6776 60.8701 80.7351C53.2815 86.5402 46.4517 93.1025 40.3176 100.359C39.5587 101.242 39.3057 102.126 39.4955 103.261C39.6852 104.334 39.8749 105.47 40.0646 106.543C41.6456 115.377 44.6178 123.706 49.171 131.404C49.4239 131.845 49.7401 132.287 50.0563 132.855C50.3725 132.476 50.6255 132.287 50.7519 132.035C55.7478 125.851 61.5657 120.614 68.4587 116.512C69.1544 116.134 69.4073 115.566 69.5338 114.872C73.0752 97.6457 79.0196 81.303 87.7465 66.0331C87.9362 65.7175 88.0627 65.4021 88.1892 65.1497ZM128.282 190.086C128.978 190.086 129.358 190.086 129.737 190.086C136.314 189.897 142.511 188.256 148.519 185.669C158.068 181.504 166.226 175.384 173.308 167.812C183.68 156.706 190.762 143.897 193.734 128.943C194.051 127.492 194.24 126.04 194.43 124.652C178.747 143.897 159.206 157.148 135.365 163.773C134.733 172.923 132.393 181.567 128.282 190.086ZM14.2633 192.736C14.3265 193.241 14.3897 193.493 14.453 193.746C15.2751 196.206 16.0339 198.667 16.9825 201.002C21.2195 211.098 27.7963 219.301 37.3453 224.853C47.843 230.974 59.1627 232.488 71.0515 230.659C80.8535 229.207 89.8334 225.484 98.1177 220.247C98.4338 220.058 98.6868 219.805 99.0662 219.49C97.4853 218.354 95.9675 217.345 94.4498 216.272C92.1732 217.723 89.7069 218.102 87.1774 218.039C85.5964 217.976 84.0154 217.913 82.4977 217.66C72.1898 215.956 62.8305 211.981 54.7992 205.23C54.1668 204.725 53.5977 204.472 52.7756 204.599C48.3489 205.04 43.8589 204.725 39.4955 204.031C30.6421 202.516 22.7372 198.92 15.528 193.619C15.2118 193.367 14.8324 193.115 14.2633 192.736ZM91.857 162.701C90.1496 153.741 90.9717 145.222 93.5645 136.83C96.1573 128.438 100.457 120.929 105.896 114.178C105.77 113.988 105.706 113.862 105.643 113.862C105.453 113.736 105.264 113.673 105.074 113.61C101.153 112.032 97.0426 111.149 92.8056 111.023C85.4699 110.77 78.5769 112.663 72.0633 115.944C71.3045 116.323 70.925 116.828 70.8618 117.648C70.2927 122.065 69.4706 126.545 69.0279 130.962C68.269 137.714 68.0161 144.465 68.3955 151.217C68.4587 152.163 68.7749 152.668 69.5338 153.173C73.0119 155.444 76.6165 157.4 80.4741 159.041C84.0787 160.492 87.7465 161.754 91.857 162.701ZM37.6615 176.583C37.788 176.52 37.8513 176.456 37.9777 176.456C35.7011 160.997 39.9381 147.242 48.7283 134.622C42.7839 125.22 39.2425 114.998 37.5983 103.829C37.0924 104.46 36.7762 104.776 36.5232 105.091C35.0688 107.047 33.6143 109.003 32.2863 110.96C26.1521 119.983 21.2827 129.637 17.6149 139.922C17.2987 140.869 17.2355 141.752 17.4884 142.698C18.6267 146.863 20.018 151.027 21.7254 155.003C24.6976 161.817 28.6184 168.064 33.9305 173.301C35.1952 174.437 36.46 175.447 37.6615 176.583ZM72.2531 183.208C72.1266 182.703 72.0001 182.325 71.8736 181.946C69.0279 173.049 67.3837 163.963 66.7513 154.624C66.6881 153.678 66.2454 153.173 65.5498 152.668C59.7318 148.314 54.6727 143.14 50.499 137.209C50.246 136.83 49.9298 136.515 49.6136 136.136C49.2974 136.578 48.9813 136.956 48.7283 137.335C45.5031 142.194 42.9736 147.431 41.3294 153.047C38.9895 160.934 38.2939 168.885 39.8116 176.961C40.0014 177.971 40.444 178.539 41.2661 179.107C47.4635 182.956 54.1668 184.849 61.4393 184.785C65.0439 184.722 68.5852 184.281 72.2531 183.208ZM51.7005 202.706C51.574 202.453 51.574 202.39 51.574 202.327C51.4476 202.201 51.3211 202.012 51.1946 201.885C45.4399 195.891 41.2661 188.95 39.116 180.873C38.9263 180.179 38.5469 179.738 38.041 179.359C33.1084 175.889 29.1243 171.472 25.7727 166.487C21.7254 160.492 18.8797 153.993 16.7296 147.115C16.6031 146.611 16.4134 146.169 16.2236 145.664C15.781 146.232 15.6545 146.737 15.4648 147.242C13.6941 153.804 12.4926 160.429 12.0499 167.181C11.544 174.248 11.8602 181.315 13.1882 188.256C13.3147 189.013 13.6309 189.644 14.2633 190.149C24.6976 198.667 36.5865 203.21 50.1828 202.832C50.5622 202.832 51.0681 202.769 51.7005 202.706ZM108.046 114.682C107.54 115.313 107.161 115.692 106.845 116.134C103.936 119.793 101.469 123.706 99.3824 127.87C94.7028 137.335 92.11 147.305 93.185 157.968C93.3748 159.735 93.691 161.439 93.9439 163.269C96.1573 163.584 98.1809 163.9 100.268 164.278C101.153 164.468 101.785 164.089 102.355 163.458C111.524 153.236 118.228 141.626 123.16 128.88C123.413 128.186 123.287 127.681 122.844 127.113C120.125 123.642 116.963 120.551 113.358 118.027C111.651 116.891 109.88 115.881 108.046 114.682ZM125.184 191.853C115.888 191.032 107.983 187.688 101.469 181.189C94.8925 187.057 87.9362 192.168 80.1579 196.333C85.4067 205.482 91.9835 213.054 100.9 218.48C111.018 211.35 119.113 202.706 125.184 191.853ZM93.1218 60.9851C100.141 58.7135 107.161 57.0099 114.37 56.0003C121.579 54.9907 128.852 54.9276 136.124 55.4324C136.251 54.2966 136.314 53.3501 136.377 52.4036C136.693 48.0498 136.946 43.7591 137.262 39.4052C137.452 36.3134 137.579 33.1584 137.705 30.0035C137.705 29.4987 137.705 28.9308 137.389 28.6153C135.618 26.5961 133.658 24.8293 131.444 23.1888C115.255 32.3381 103.05 45.4628 93.1218 60.9851ZM194.367 108.814C193.165 97.3302 188.928 87.1081 181.213 78.4635C173.814 70.0714 164.518 64.4556 153.704 60.7958C154.906 70.1345 154.463 79.1576 153.135 88.2439C170.779 87.5498 184.565 94.1121 194.367 108.814ZM131.824 139.607C132.203 138.976 132.456 138.534 132.709 138.092C133.721 136.199 134.796 134.306 135.808 132.35C142.385 119.604 147.444 106.353 150.29 92.2192C150.416 91.6513 150.416 91.0834 150.542 90.4524C144.851 91.0834 139.602 92.5977 134.543 94.68C133.784 94.9955 133.658 95.5003 133.531 96.1944C131.95 106.669 129.484 116.954 125.943 126.987C125.69 127.681 125.753 128.186 126.132 128.817C127.46 130.962 128.725 133.17 129.927 135.379C130.559 136.641 131.128 138.029 131.824 139.607ZM126.196 189.96C130.243 181.946 132.836 173.428 133.468 164.215C132.836 164.341 132.393 164.404 132.014 164.468C126.891 165.603 121.706 166.487 116.457 166.739C115.635 166.802 115.192 167.118 114.686 167.686C111.018 171.598 107.287 175.447 103.619 179.296C103.43 179.485 103.24 179.738 103.05 179.927C108.299 185.921 118.101 190.023 126.196 189.96ZM137.958 57.3254C136.693 69.188 135.492 80.9244 134.227 92.787C139.602 90.5786 145.167 89.1273 150.795 88.4332C152.503 81.1768 152.882 66.0961 151.365 60.0386C147.001 58.7767 142.574 57.8302 137.958 57.3254ZM41.2029 181.504C41.2029 181.82 41.1397 182.009 41.2029 182.135C41.4559 182.829 41.6456 183.587 41.8985 184.281C44.3648 190.969 48.2224 196.711 53.2815 201.759C53.9139 202.39 54.5462 202.706 55.4316 202.516C55.7478 202.453 56.064 202.453 56.3169 202.39C63.3997 201.317 70.1662 199.109 76.5533 195.954C76.8695 195.828 77.1224 195.575 77.3754 195.449C75.8577 192.042 74.3399 188.698 72.8854 185.29C61.8187 188.193 51.2578 187.183 41.2029 181.504ZM74.087 182.577C79.652 181.378 91.5408 174.5 94.3866 170.841C93.6909 168.948 92.9953 166.992 92.2997 164.972C84.0154 163.016 76.1739 159.798 68.6485 154.94C69.3441 164.531 71.0515 173.617 74.087 182.577ZM93.6277 215.578C87.3039 210.341 82.4345 204.157 78.6402 197.342C74.9091 198.793 71.3677 200.371 67.7631 201.57C64.0953 202.769 60.3642 203.526 56.5066 204.535C56.9493 204.914 57.2655 205.23 57.7082 205.545C64.1585 210.53 71.431 213.811 79.2726 215.767C82.2448 216.461 85.217 217.029 88.2524 216.966C90.0231 216.903 91.7938 216.651 93.6277 215.578ZM104.062 164.531C104.631 164.594 104.884 164.72 105.074 164.72C107.92 164.783 110.702 164.783 113.548 164.846C114.307 164.846 114.623 164.404 115.002 163.963C120.504 157.274 125.5 150.144 129.99 142.698C130.433 141.941 130.433 141.373 130.18 140.553C128.915 137.209 127.334 133.991 125.437 130.962C125.247 130.71 125.057 130.457 124.741 130.142C119.809 142.825 113.168 154.309 104.062 164.531ZM131.634 96.2575C125.626 98.2136 111.271 109.445 109.248 113.61C110.386 114.241 111.524 114.872 112.599 115.629C113.674 116.323 114.686 117.017 115.698 117.774C116.71 118.595 117.722 119.415 118.733 120.298C119.682 121.119 120.567 122.065 121.453 122.948C122.338 123.895 123.16 124.841 124.172 125.914C127.65 116.197 129.99 106.416 131.634 96.2575ZM50.8784 134.306C55.1154 140.742 60.1745 146.106 66.2454 150.712C66.4351 145.096 66.4351 139.67 66.8145 134.243C67.194 128.817 68.0161 123.39 68.7117 117.774C61.629 122.191 55.811 127.681 50.8784 134.306ZM99.9516 179.674C98.4339 177.403 96.9161 175.258 95.3352 172.986C89.201 178.097 82.4977 182.135 74.8458 184.659C76.1739 188.13 77.5019 191.348 79.2726 194.44C84.7111 191.916 96.094 183.776 99.9516 179.674ZM151.048 58.0195C151.112 51.5202 143.523 33.9787 139.476 31.3286C139.033 39.4052 138.527 47.4819 138.084 55.4324C142.448 56.3158 146.685 57.1992 151.048 58.0195ZM131.318 144.591C127.081 151.532 122.465 158.095 117.342 164.404C120.378 164.594 130.875 162.89 133.468 161.817C134.037 157.968 132.836 147.936 131.318 144.591ZM101.406 178.286C103.746 176.709 111.587 168.38 112.093 166.928C111.018 166.928 109.943 166.928 108.868 166.928C107.793 166.928 106.718 166.802 105.706 166.802C104.568 166.739 103.303 166.424 102.291 166.802C101.343 167.118 100.647 168.19 99.8251 169.011C98.8765 169.894 97.9912 170.841 97.0426 171.787C98.2441 174.122 99.6986 176.267 101.406 178.286ZM137.895 26.0282C137.895 23.8829 137.895 22.053 137.895 20.0338C136.44 20.7279 135.049 21.3589 133.468 22.1161C134.986 23.4412 136.314 24.6401 137.895 26.0282ZM94.4498 165.414C95.019 166.928 95.4616 168.19 96.0308 169.642C97.2323 168.443 98.4971 167.559 99.3824 166.234C97.7382 165.982 96.2837 165.73 94.4498 165.414Z" fill="black"/>
</g>
</g>
<path fill-rule="evenodd" clip-rule="evenodd" d="M202.243 54.065C181.977 38.2057 151.871 41.1626 134.817 58.4942C117.249 76.3471 115.447 111.056 136.843 128.073C149.213 137.911 170.19 143.561 185.873 138.951C215.11 130.359 230.362 94.6591 214.007 66.7925" fill="white"/>
<path d="M202.243 54.065C181.977 38.2057 151.871 41.1626 134.817 58.4942C117.249 76.3471 115.447 111.056 136.843 128.073C149.213 137.911 170.19 143.561 185.873 138.951C215.11 130.359 230.362 94.6591 214.007 66.7925" stroke="black" stroke-width="9.56284" stroke-miterlimit="1.5" stroke-linecap="round" stroke-linejoin="round"/>
<path fill-rule="evenodd" clip-rule="evenodd" d="M194.052 135.689C189.205 138.303 183.645 139.586 181.126 140.014C183.533 149.728 187.837 161.457 191.633 170.687C194.003 176.451 196.939 181.717 199.584 187.359C201.676 191.823 207.936 197.556 212.114 191.644C215.313 187.121 212.551 180.225 210.98 175.605C206.644 162.838 199.087 148.132 194.052 135.689Z" fill="black" stroke="black" stroke-width="9.56284" stroke-miterlimit="1.5" stroke-linecap="round" stroke-linejoin="round"/>
<path d="M174.589 66.5865C177.584 66.5641 180.764 67.2411 183.611 68.5702C186.798 70.0577 189.569 72.362 191.196 75.4169" stroke="black" stroke-width="9.56284" stroke-miterlimit="1.5" stroke-linecap="round" stroke-linejoin="round"/>
</g>
<defs>
<clipPath id="clip0_518_3373">
<rect width="240" height="205" fill="white"/>
</clipPath>
<clipPath id="clip1_518_3373">
<rect width="196" height="205" fill="white"/>
</clipPath>
</defs>
</svg>
